<?xml version="1.0" encoding="utf-8" standalone="no"?>
<!DOCTYPE svg PUBLIC "-//W3C//DTD SVG 1.1//EN"
  "http://www.w3.org/Graphics/SVG/1.1/DTD/svg11.dtd">
<svg xmlns:xlink="http://www.w3.org/1999/xlink" width="726.53125pt" height="312.571875pt" viewBox="0 0 726.53125 312.571875" xmlns="http://www.w3.org/2000/svg" version="1.1">
 <metadata>
  <rdf:RDF xmlns:dc="http://purl.org/dc/elements/1.1/" xmlns:cc="http://creativecommons.org/ns#" xmlns:rdf="http://www.w3.org/1999/02/22-rdf-syntax-ns#">
   <cc:Work>
    <dc:type rdf:resource="http://purl.org/dc/dcmitype/StillImage"/>
    <dc:date>2024-06-02T14:12:50.923289</dc:date>
    <dc:format>image/svg+xml</dc:format>
    <dc:creator>
     <cc:Agent>
      <dc:title>Matplotlib v3.8.2, https://matplotlib.org/</dc:title>
     </cc:Agent>
    </dc:creator>
   </cc:Work>
  </rdf:RDF>
 </metadata>
 <defs>
  <style type="text/css">*{stroke-linejoin: round; stroke-linecap: butt}</style>
 </defs>
 <g id="figure_1">
  <g id="patch_1">
   <path d="M 0 312.571875 
L 726.53125 312.571875 
L 726.53125 0 
L 0 0 
z
" style="fill: #ffffff"/>
  </g>
  <g id="axes_1">
   <g id="patch_2">
    <path d="M 48.90125 273.08 
L 486.32125 273.08 
L 486.32125 23.76 
L 48.90125 23.76 
z
" style="fill: #e5e5e5"/>
   </g>
   <g id="matplotlib.axis_1">
    <g id="xtick_1">
     <g id="line2d_1">
      <path d="M 122.298344 273.08 
L 122.298344 23.76 
" clip-path="url(#p0be955687f)" style="fill: none; stroke: #ffffff; stroke-width: 0.8; stroke-linecap: square"/>
     </g>
     <g id="line2d_2">
      <defs>
       <path id="m64c117b168" d="M 0 0 
L 0 3.5 
" style="stroke: #555555; stroke-width: 0.8"/>
      </defs>
      <g>
       <use xlink:href="#m64c117b168" x="122.298344" y="273.08" style="fill: #555555; stroke: #555555; stroke-width: 0.8"/>
      </g>
     </g>
     <g id="text_1">
      <!-- 0 -->
      <g style="fill: #555555" transform="translate(119.117094 287.678437) scale(0.1 -0.1)">
       <defs>
        <path id="DejaVuSans-30" d="M 2034 4250 
Q 1547 4250 1301 3770 
Q 1056 3291 1056 2328 
Q 1056 1369 1301 889 
Q 1547 409 2034 409 
Q 2525 409 2770 889 
Q 3016 1369 3016 2328 
Q 3016 3291 2770 3770 
Q 2525 4250 2034 4250 
z
M 2034 4750 
Q 2819 4750 3233 4129 
Q 3647 3509 3647 2328 
Q 3647 1150 3233 529 
Q 2819 -91 2034 -91 
Q 1250 -91 836 529 
Q 422 1150 422 2328 
Q 422 3509 836 4129 
Q 1250 4750 2034 4750 
z
" transform="scale(0.015625)"/>
       </defs>
       <use xlink:href="#DejaVuSans-30"/>
      </g>
     </g>
    </g>
    <g id="xtick_2">
     <g id="line2d_3">
      <path d="M 216.790239 273.08 
L 216.790239 23.76 
" clip-path="url(#p0be955687f)" style="fill: none; stroke: #ffffff; stroke-width: 0.8; stroke-linecap: square"/>
     </g>
     <g id="line2d_4">
      <g>
       <use xlink:href="#m64c117b168" x="216.790239" y="273.08" style="fill: #555555; stroke: #555555; stroke-width: 0.8"/>
      </g>
     </g>
     <g id="text_2">
      <!-- 10 -->
      <g style="fill: #555555" transform="translate(210.427739 287.678437) scale(0.1 -0.1)">
       <defs>
        <path id="DejaVuSans-31" d="M 794 531 
L 1825 531 
L 1825 4091 
L 703 3866 
L 703 4441 
L 1819 4666 
L 2450 4666 
L 2450 531 
L 3481 531 
L 3481 0 
L 794 0 
L 794 531 
z
" transform="scale(0.015625)"/>
       </defs>
       <use xlink:href="#DejaVuSans-31"/>
       <use xlink:href="#DejaVuSans-30" x="63.623047"/>
      </g>
     </g>
    </g>
    <g id="xtick_3">
     <g id="line2d_5">
      <path d="M 311.282135 273.08 
L 311.282135 23.76 
" clip-path="url(#p0be955687f)" style="fill: none; stroke: #ffffff; stroke-width: 0.8; stroke-linecap: square"/>
     </g>
     <g id="line2d_6">
      <g>
       <use xlink:href="#m64c117b168" x="311.282135" y="273.08" style="fill: #555555; stroke: #555555; stroke-width: 0.8"/>
      </g>
     </g>
     <g id="text_3">
      <!-- 20 -->
      <g style="fill: #555555" transform="translate(304.919635 287.678437) scale(0.1 -0.1)">
       <defs>
        <path id="DejaVuSans-32" d="M 1228 531 
L 3431 531 
L 3431 0 
L 469 0 
L 469 531 
Q 828 903 1448 1529 
Q 2069 2156 2228 2338 
Q 2531 2678 2651 2914 
Q 2772 3150 2772 3378 
Q 2772 3750 2511 3984 
Q 2250 4219 1831 4219 
Q 1534 4219 1204 4116 
Q 875 4013 500 3803 
L 500 4441 
Q 881 4594 1212 4672 
Q 1544 4750 1819 4750 
Q 2544 4750 2975 4387 
Q 3406 4025 3406 3419 
Q 3406 3131 3298 2873 
Q 3191 2616 2906 2266 
Q 2828 2175 2409 1742 
Q 1991 1309 1228 531 
z
" transform="scale(0.015625)"/>
       </defs>
       <use xlink:href="#DejaVuSans-32"/>
       <use xlink:href="#DejaVuSans-30" x="63.623047"/>
      </g>
     </g>
    </g>
    <g id="xtick_4">
     <g id="line2d_7">
      <path d="M 405.774031 273.08 
L 405.774031 23.76 
" clip-path="url(#p0be955687f)" style="fill: none; stroke: #ffffff; stroke-width: 0.8; stroke-linecap: square"/>
     </g>
     <g id="line2d_8">
      <g>
       <use xlink:href="#m64c117b168" x="405.774031" y="273.08" style="fill: #555555; stroke: #555555; stroke-width: 0.8"/>
      </g>
     </g>
     <g id="text_4">
      <!-- 30 -->
      <g style="fill: #555555" transform="translate(399.411531 287.678437) scale(0.1 -0.1)">
       <defs>
        <path id="DejaVuSans-33" d="M 2597 2516 
Q 3050 2419 3304 2112 
Q 3559 1806 3559 1356 
Q 3559 666 3084 287 
Q 2609 -91 1734 -91 
Q 1441 -91 1130 -33 
Q 819 25 488 141 
L 488 750 
Q 750 597 1062 519 
Q 1375 441 1716 441 
Q 2309 441 2620 675 
Q 2931 909 2931 1356 
Q 2931 1769 2642 2001 
Q 2353 2234 1838 2234 
L 1294 2234 
L 1294 2753 
L 1863 2753 
Q 2328 2753 2575 2939 
Q 2822 3125 2822 3475 
Q 2822 3834 2567 4026 
Q 2313 4219 1838 4219 
Q 1578 4219 1281 4162 
Q 984 4106 628 3988 
L 628 4550 
Q 988 4650 1302 4700 
Q 1616 4750 1894 4750 
Q 2613 4750 3031 4423 
Q 3450 4097 3450 3541 
Q 3450 3153 3228 2886 
Q 3006 2619 2597 2516 
z
" transform="scale(0.015625)"/>
       </defs>
       <use xlink:href="#DejaVuSans-33"/>
       <use xlink:href="#DejaVuSans-30" x="63.623047"/>
      </g>
     </g>
    </g>
    <g id="text_5">
     <!-- Distance along [m] -->
     <g style="fill: #555555" transform="translate(210.409687 302.87625) scale(0.12 -0.12)">
      <defs>
       <path id="DejaVuSans-44" d="M 1259 4147 
L 1259 519 
L 2022 519 
Q 2988 519 3436 956 
Q 3884 1394 3884 2338 
Q 3884 3275 3436 3711 
Q 2988 4147 2022 4147 
L 1259 4147 
z
M 628 4666 
L 1925 4666 
Q 3281 4666 3915 4102 
Q 4550 3538 4550 2338 
Q 4550 1131 3912 565 
Q 3275 0 1925 0 
L 628 0 
L 628 4666 
z
" transform="scale(0.015625)"/>
       <path id="DejaVuSans-69" d="M 603 3500 
L 1178 3500 
L 1178 0 
L 603 0 
L 603 3500 
z
M 603 4863 
L 1178 4863 
L 1178 4134 
L 603 4134 
L 603 4863 
z
" transform="scale(0.015625)"/>
       <path id="DejaVuSans-73" d="M 2834 3397 
L 2834 2853 
Q 2591 2978 2328 3040 
Q 2066 3103 1784 3103 
Q 1356 3103 1142 2972 
Q 928 2841 928 2578 
Q 928 2378 1081 2264 
Q 1234 2150 1697 2047 
L 1894 2003 
Q 2506 1872 2764 1633 
Q 3022 1394 3022 966 
Q 3022 478 2636 193 
Q 2250 -91 1575 -91 
Q 1294 -91 989 -36 
Q 684 19 347 128 
L 347 722 
Q 666 556 975 473 
Q 1284 391 1588 391 
Q 1994 391 2212 530 
Q 2431 669 2431 922 
Q 2431 1156 2273 1281 
Q 2116 1406 1581 1522 
L 1381 1569 
Q 847 1681 609 1914 
Q 372 2147 372 2553 
Q 372 3047 722 3315 
Q 1072 3584 1716 3584 
Q 2034 3584 2315 3537 
Q 2597 3491 2834 3397 
z
" transform="scale(0.015625)"/>
       <path id="DejaVuSans-74" d="M 1172 4494 
L 1172 3500 
L 2356 3500 
L 2356 3053 
L 1172 3053 
L 1172 1153 
Q 1172 725 1289 603 
Q 1406 481 1766 481 
L 2356 481 
L 2356 0 
L 1766 0 
Q 1100 0 847 248 
Q 594 497 594 1153 
L 594 3053 
L 172 3053 
L 172 3500 
L 594 3500 
L 594 4494 
L 1172 4494 
z
" transform="scale(0.015625)"/>
       <path id="DejaVuSans-61" d="M 2194 1759 
Q 1497 1759 1228 1600 
Q 959 1441 959 1056 
Q 959 750 1161 570 
Q 1363 391 1709 391 
Q 2188 391 2477 730 
Q 2766 1069 2766 1631 
L 2766 1759 
L 2194 1759 
z
M 3341 1997 
L 3341 0 
L 2766 0 
L 2766 531 
Q 2569 213 2275 61 
Q 1981 -91 1556 -91 
Q 1019 -91 701 211 
Q 384 513 384 1019 
Q 384 1609 779 1909 
Q 1175 2209 1959 2209 
L 2766 2209 
L 2766 2266 
Q 2766 2663 2505 2880 
Q 2244 3097 1772 3097 
Q 1472 3097 1187 3025 
Q 903 2953 641 2809 
L 641 3341 
Q 956 3463 1253 3523 
Q 1550 3584 1831 3584 
Q 2591 3584 2966 3190 
Q 3341 2797 3341 1997 
z
" transform="scale(0.015625)"/>
       <path id="DejaVuSans-6e" d="M 3513 2113 
L 3513 0 
L 2938 0 
L 2938 2094 
Q 2938 2591 2744 2837 
Q 2550 3084 2163 3084 
Q 1697 3084 1428 2787 
Q 1159 2491 1159 1978 
L 1159 0 
L 581 0 
L 581 3500 
L 1159 3500 
L 1159 2956 
Q 1366 3272 1645 3428 
Q 1925 3584 2291 3584 
Q 2894 3584 3203 3211 
Q 3513 2838 3513 2113 
z
" transform="scale(0.015625)"/>
       <path id="DejaVuSans-63" d="M 3122 3366 
L 3122 2828 
Q 2878 2963 2633 3030 
Q 2388 3097 2138 3097 
Q 1578 3097 1268 2742 
Q 959 2388 959 1747 
Q 959 1106 1268 751 
Q 1578 397 2138 397 
Q 2388 397 2633 464 
Q 2878 531 3122 666 
L 3122 134 
Q 2881 22 2623 -34 
Q 2366 -91 2075 -91 
Q 1284 -91 818 406 
Q 353 903 353 1747 
Q 353 2603 823 3093 
Q 1294 3584 2113 3584 
Q 2378 3584 2631 3529 
Q 2884 3475 3122 3366 
z
" transform="scale(0.015625)"/>
       <path id="DejaVuSans-65" d="M 3597 1894 
L 3597 1613 
L 953 1613 
Q 991 1019 1311 708 
Q 1631 397 2203 397 
Q 2534 397 2845 478 
Q 3156 559 3463 722 
L 3463 178 
Q 3153 47 2828 -22 
Q 2503 -91 2169 -91 
Q 1331 -91 842 396 
Q 353 884 353 1716 
Q 353 2575 817 3079 
Q 1281 3584 2069 3584 
Q 2775 3584 3186 3129 
Q 3597 2675 3597 1894 
z
M 3022 2063 
Q 3016 2534 2758 2815 
Q 2500 3097 2075 3097 
Q 1594 3097 1305 2825 
Q 1016 2553 972 2059 
L 3022 2063 
z
" transform="scale(0.015625)"/>
       <path id="DejaVuSans-20" transform="scale(0.015625)"/>
       <path id="DejaVuSans-6c" d="M 603 4863 
L 1178 4863 
L 1178 0 
L 603 0 
L 603 4863 
z
" transform="scale(0.015625)"/>
       <path id="DejaVuSans-6f" d="M 1959 3097 
Q 1497 3097 1228 2736 
Q 959 2375 959 1747 
Q 959 1119 1226 758 
Q 1494 397 1959 397 
Q 2419 397 2687 759 
Q 2956 1122 2956 1747 
Q 2956 2369 2687 2733 
Q 2419 3097 1959 3097 
z
M 1959 3584 
Q 2709 3584 3137 3096 
Q 3566 2609 3566 1747 
Q 3566 888 3137 398 
Q 2709 -91 1959 -91 
Q 1206 -91 779 398 
Q 353 888 353 1747 
Q 353 2609 779 3096 
Q 1206 3584 1959 3584 
z
" transform="scale(0.015625)"/>
       <path id="DejaVuSans-67" d="M 2906 1791 
Q 2906 2416 2648 2759 
Q 2391 3103 1925 3103 
Q 1463 3103 1205 2759 
Q 947 2416 947 1791 
Q 947 1169 1205 825 
Q 1463 481 1925 481 
Q 2391 481 2648 825 
Q 2906 1169 2906 1791 
z
M 3481 434 
Q 3481 -459 3084 -895 
Q 2688 -1331 1869 -1331 
Q 1566 -1331 1297 -1286 
Q 1028 -1241 775 -1147 
L 775 -588 
Q 1028 -725 1275 -790 
Q 1522 -856 1778 -856 
Q 2344 -856 2625 -561 
Q 2906 -266 2906 331 
L 2906 616 
Q 2728 306 2450 153 
Q 2172 0 1784 0 
Q 1141 0 747 490 
Q 353 981 353 1791 
Q 353 2603 747 3093 
Q 1141 3584 1784 3584 
Q 2172 3584 2450 3431 
Q 2728 3278 2906 2969 
L 2906 3500 
L 3481 3500 
L 3481 434 
z
" transform="scale(0.015625)"/>
       <path id="DejaVuSans-5b" d="M 550 4863 
L 1875 4863 
L 1875 4416 
L 1125 4416 
L 1125 -397 
L 1875 -397 
L 1875 -844 
L 550 -844 
L 550 4863 
z
" transform="scale(0.015625)"/>
       <path id="DejaVuSans-6d" d="M 3328 2828 
Q 3544 3216 3844 3400 
Q 4144 3584 4550 3584 
Q 5097 3584 5394 3201 
Q 5691 2819 5691 2113 
L 5691 0 
L 5113 0 
L 5113 2094 
Q 5113 2597 4934 2840 
Q 4756 3084 4391 3084 
Q 3944 3084 3684 2787 
Q 3425 2491 3425 1978 
L 3425 0 
L 2847 0 
L 2847 2094 
Q 2847 2600 2669 2842 
Q 2491 3084 2119 3084 
Q 1678 3084 1418 2786 
Q 1159 2488 1159 1978 
L 1159 0 
L 581 0 
L 581 3500 
L 1159 3500 
L 1159 2956 
Q 1356 3278 1631 3431 
Q 1906 3584 2284 3584 
Q 2666 3584 2933 3390 
Q 3200 3197 3328 2828 
z
" transform="scale(0.015625)"/>
       <path id="DejaVuSans-5d" d="M 1947 4863 
L 1947 -844 
L 622 -844 
L 622 -397 
L 1369 -397 
L 1369 4416 
L 622 4416 
L 622 4863 
L 1947 4863 
z
" transform="scale(0.015625)"/>
      </defs>
      <use xlink:href="#DejaVuSans-44"/>
      <use xlink:href="#DejaVuSans-69" x="77.001953"/>
      <use xlink:href="#DejaVuSans-73" x="104.785156"/>
      <use xlink:href="#DejaVuSans-74" x="156.884766"/>
      <use xlink:href="#DejaVuSans-61" x="196.09375"/>
      <use xlink:href="#DejaVuSans-6e" x="257.373047"/>
      <use xlink:href="#DejaVuSans-63" x="320.751953"/>
      <use xlink:href="#DejaVuSans-65" x="375.732422"/>
      <use xlink:href="#DejaVuSans-20" x="437.255859"/>
      <use xlink:href="#DejaVuSans-61" x="469.042969"/>
      <use xlink:href="#DejaVuSans-6c" x="530.322266"/>
      <use xlink:href="#DejaVuSans-6f" x="558.105469"/>
      <use xlink:href="#DejaVuSans-6e" x="619.287109"/>
      <use xlink:href="#DejaVuSans-67" x="682.666016"/>
      <use xlink:href="#DejaVuSans-20" x="746.142578"/>
      <use xlink:href="#DejaVuSans-5b" x="777.929688"/>
      <use xlink:href="#DejaVuSans-6d" x="816.943359"/>
      <use xlink:href="#DejaVuSans-5d" x="914.355469"/>
     </g>
    </g>
   </g>
   <g id="matplotlib.axis_2">
    <g id="ytick_1">
     <g id="line2d_9">
      <path d="M 48.90125 244.312308 
L 486.32125 244.312308 
" clip-path="url(#p0be955687f)" style="fill: none; stroke: #ffffff; stroke-width: 0.8; stroke-linecap: square"/>
     </g>
     <g id="line2d_10">
      <defs>
       <path id="m2082b0591f" d="M 0 0 
L -3.5 0 
" style="stroke: #555555; stroke-width: 0.8"/>
      </defs>
      <g>
       <use xlink:href="#m2082b0591f" x="48.90125" y="244.312308" style="fill: #555555; stroke: #555555; stroke-width: 0.8"/>
      </g>
     </g>
     <g id="text_6">
      <!-- 0 -->
      <g style="fill: #555555" transform="translate(35.53875 248.111526) scale(0.1 -0.1)">
       <use xlink:href="#DejaVuSans-30"/>
      </g>
     </g>
    </g>
    <g id="ytick_2">
     <g id="line2d_11">
      <path d="M 48.90125 205.955385 
L 486.32125 205.955385 
" clip-path="url(#p0be955687f)" style="fill: none; stroke: #ffffff; stroke-width: 0.8; stroke-linecap: square"/>
     </g>
     <g id="line2d_12">
      <g>
       <use xlink:href="#m2082b0591f" x="48.90125" y="205.955385" style="fill: #555555; stroke: #555555; stroke-width: 0.8"/>
      </g>
     </g>
     <g id="text_7">
      <!-- 20 -->
      <g style="fill: #555555" transform="translate(29.17625 209.754603) scale(0.1 -0.1)">
       <use xlink:href="#DejaVuSans-32"/>
       <use xlink:href="#DejaVuSans-30" x="63.623047"/>
      </g>
     </g>
    </g>
    <g id="ytick_3">
     <g id="line2d_13">
      <path d="M 48.90125 167.598462 
L 486.32125 167.598462 
" clip-path="url(#p0be955687f)" style="fill: none; stroke: #ffffff; stroke-width: 0.8; stroke-linecap: square"/>
     </g>
     <g id="line2d_14">
      <g>
       <use xlink:href="#m2082b0591f" x="48.90125" y="167.598462" style="fill: #555555; stroke: #555555; stroke-width: 0.8"/>
      </g>
     </g>
     <g id="text_8">
      <!-- 40 -->
      <g style="fill: #555555" transform="translate(29.17625 171.39768) scale(0.1 -0.1)">
       <defs>
        <path id="DejaVuSans-34" d="M 2419 4116 
L 825 1625 
L 2419 1625 
L 2419 4116 
z
M 2253 4666 
L 3047 4666 
L 3047 1625 
L 3713 1625 
L 3713 1100 
L 3047 1100 
L 3047 0 
L 2419 0 
L 2419 1100 
L 313 1100 
L 313 1709 
L 2253 4666 
z
" transform="scale(0.015625)"/>
       </defs>
       <use xlink:href="#DejaVuSans-34"/>
       <use xlink:href="#DejaVuSans-30" x="63.623047"/>
      </g>
     </g>
    </g>
    <g id="ytick_4">
     <g id="line2d_15">
      <path d="M 48.90125 129.241538 
L 486.32125 129.241538 
" clip-path="url(#p0be955687f)" style="fill: none; stroke: #ffffff; stroke-width: 0.8; stroke-linecap: square"/>
     </g>
     <g id="line2d_16">
      <g>
       <use xlink:href="#m2082b0591f" x="48.90125" y="129.241538" style="fill: #555555; stroke: #555555; stroke-width: 0.8"/>
      </g>
     </g>
     <g id="text_9">
      <!-- 60 -->
      <g style="fill: #555555" transform="translate(29.17625 133.040757) scale(0.1 -0.1)">
       <defs>
        <path id="DejaVuSans-36" d="M 2113 2584 
Q 1688 2584 1439 2293 
Q 1191 2003 1191 1497 
Q 1191 994 1439 701 
Q 1688 409 2113 409 
Q 2538 409 2786 701 
Q 3034 994 3034 1497 
Q 3034 2003 2786 2293 
Q 2538 2584 2113 2584 
z
M 3366 4563 
L 3366 3988 
Q 3128 4100 2886 4159 
Q 2644 4219 2406 4219 
Q 1781 4219 1451 3797 
Q 1122 3375 1075 2522 
Q 1259 2794 1537 2939 
Q 1816 3084 2150 3084 
Q 2853 3084 3261 2657 
Q 3669 2231 3669 1497 
Q 3669 778 3244 343 
Q 2819 -91 2113 -91 
Q 1303 -91 875 529 
Q 447 1150 447 2328 
Q 447 3434 972 4092 
Q 1497 4750 2381 4750 
Q 2619 4750 2861 4703 
Q 3103 4656 3366 4563 
z
" transform="scale(0.015625)"/>
       </defs>
       <use xlink:href="#DejaVuSans-36"/>
       <use xlink:href="#DejaVuSans-30" x="63.623047"/>
      </g>
     </g>
    </g>
    <g id="ytick_5">
     <g id="line2d_17">
      <path d="M 48.90125 90.884615 
L 486.32125 90.884615 
" clip-path="url(#p0be955687f)" style="fill: none; stroke: #ffffff; stroke-width: 0.8; stroke-linecap: square"/>
     </g>
     <g id="line2d_18">
      <g>
       <use xlink:href="#m2082b0591f" x="48.90125" y="90.884615" style="fill: #555555; stroke: #555555; stroke-width: 0.8"/>
      </g>
     </g>
     <g id="text_10">
      <!-- 80 -->
      <g style="fill: #555555" transform="translate(29.17625 94.683834) scale(0.1 -0.1)">
       <defs>
        <path id="DejaVuSans-38" d="M 2034 2216 
Q 1584 2216 1326 1975 
Q 1069 1734 1069 1313 
Q 1069 891 1326 650 
Q 1584 409 2034 409 
Q 2484 409 2743 651 
Q 3003 894 3003 1313 
Q 3003 1734 2745 1975 
Q 2488 2216 2034 2216 
z
M 1403 2484 
Q 997 2584 770 2862 
Q 544 3141 544 3541 
Q 544 4100 942 4425 
Q 1341 4750 2034 4750 
Q 2731 4750 3128 4425 
Q 3525 4100 3525 3541 
Q 3525 3141 3298 2862 
Q 3072 2584 2669 2484 
Q 3125 2378 3379 2068 
Q 3634 1759 3634 1313 
Q 3634 634 3220 271 
Q 2806 -91 2034 -91 
Q 1263 -91 848 271 
Q 434 634 434 1313 
Q 434 1759 690 2068 
Q 947 2378 1403 2484 
z
M 1172 3481 
Q 1172 3119 1398 2916 
Q 1625 2713 2034 2713 
Q 2441 2713 2670 2916 
Q 2900 3119 2900 3481 
Q 2900 3844 2670 4047 
Q 2441 4250 2034 4250 
Q 1625 4250 1398 4047 
Q 1172 3844 1172 3481 
z
" transform="scale(0.015625)"/>
       </defs>
       <use xlink:href="#DejaVuSans-38"/>
       <use xlink:href="#DejaVuSans-30" x="63.623047"/>
      </g>
     </g>
    </g>
    <g id="ytick_6">
     <g id="line2d_19">
      <path d="M 48.90125 52.527692 
L 486.32125 52.527692 
" clip-path="url(#p0be955687f)" style="fill: none; stroke: #ffffff; stroke-width: 0.8; stroke-linecap: square"/>
     </g>
     <g id="line2d_20">
      <g>
       <use xlink:href="#m2082b0591f" x="48.90125" y="52.527692" style="fill: #555555; stroke: #555555; stroke-width: 0.8"/>
      </g>
     </g>
     <g id="text_11">
      <!-- 100 -->
      <g style="fill: #555555" transform="translate(22.81375 56.326911) scale(0.1 -0.1)">
       <use xlink:href="#DejaVuSans-31"/>
       <use xlink:href="#DejaVuSans-30" x="63.623047"/>
       <use xlink:href="#DejaVuSans-30" x="127.246094"/>
      </g>
     </g>
    </g>
    <g id="text_12">
     <!-- Distance across [m] -->
     <g style="fill: #555555" transform="translate(16.318125 208.225) rotate(-90) scale(0.12 -0.12)">
      <defs>
       <path id="DejaVuSans-72" d="M 2631 2963 
Q 2534 3019 2420 3045 
Q 2306 3072 2169 3072 
Q 1681 3072 1420 2755 
Q 1159 2438 1159 1844 
L 1159 0 
L 581 0 
L 581 3500 
L 1159 3500 
L 1159 2956 
Q 1341 3275 1631 3429 
Q 1922 3584 2338 3584 
Q 2397 3584 2469 3576 
Q 2541 3569 2628 3553 
L 2631 2963 
z
" transform="scale(0.015625)"/>
      </defs>
      <use xlink:href="#DejaVuSans-44"/>
      <use xlink:href="#DejaVuSans-69" x="77.001953"/>
      <use xlink:href="#DejaVuSans-73" x="104.785156"/>
      <use xlink:href="#DejaVuSans-74" x="156.884766"/>
      <use xlink:href="#DejaVuSans-61" x="196.09375"/>
      <use xlink:href="#DejaVuSans-6e" x="257.373047"/>
      <use xlink:href="#DejaVuSans-63" x="320.751953"/>
      <use xlink:href="#DejaVuSans-65" x="375.732422"/>
      <use xlink:href="#DejaVuSans-20" x="437.255859"/>
      <use xlink:href="#DejaVuSans-61" x="469.042969"/>
      <use xlink:href="#DejaVuSans-63" x="530.322266"/>
      <use xlink:href="#DejaVuSans-72" x="585.302734"/>
      <use xlink:href="#DejaVuSans-6f" x="624.166016"/>
      <use xlink:href="#DejaVuSans-73" x="685.347656"/>
      <use xlink:href="#DejaVuSans-73" x="737.447266"/>
      <use xlink:href="#DejaVuSans-20" x="789.546875"/>
      <use xlink:href="#DejaVuSans-5b" x="821.333984"/>
      <use xlink:href="#DejaVuSans-6d" x="860.347656"/>
      <use xlink:href="#DejaVuSans-5d" x="957.759766"/>
     </g>
    </g>
   </g>
   <g id="patch_3">
    <path d="M 162.380165 243.410431 
L 151.56775 244.224927 
L 151.260059 243.661608 
L 122.298864 244.313261 
L 122.297823 244.311355 
L 151.259017 243.659702 
L 150.951326 243.096383 
z
" clip-path="url(#p0be955687f)" style="fill: #ff0000; stroke: #ff0000; stroke-width: 0.5; stroke-linejoin: miter"/>
   </g>
   <g id="patch_4">
    <path d="M 434.002359 224.114386 
L 431.027019 226.375955 
L 428.584359 226.101295 
L 405.049364 234.723542 
L 405.041098 234.722612 
L 428.576093 226.100366 
L 426.133433 225.825706 
z
" clip-path="url(#p0be955687f)" style="fill: #ff0000; stroke: #ff0000; stroke-width: 0.5; stroke-linejoin: miter"/>
   </g>
   <g id="patch_5">
    <path d="M 460.312269 212.140111 
L 459.083381 214.467591 
L 456.461881 214.272324 
L 436.821716 225.134177 
L 436.812846 225.133516 
L 456.453011 214.271663 
L 453.83151 214.076396 
z
" clip-path="url(#p0be955687f)" style="fill: #ff0000; stroke: #ff0000; stroke-width: 0.5; stroke-linejoin: miter"/>
   </g>
   <g id="patch_6">
    <path d="M 466.438523 201.736408 
L 465.785917 204.073464 
L 463.119493 203.905109 
L 445.279129 215.5449 
L 445.270106 215.544331 
L 463.11047 203.904539 
L 460.444046 203.736184 
z
" clip-path="url(#p0be955687f)" style="fill: #ff0000; stroke: #ff0000; stroke-width: 0.5; stroke-linejoin: miter"/>
   </g>
   <g id="patch_7">
    <path d="M 458.701613 191.546141 
L 458.479737 193.886514 
L 455.78418 193.738499 
L 439.499219 205.955635 
L 439.490098 205.955134 
L 455.775059 193.737998 
L 453.079501 193.589984 
z
" clip-path="url(#p0be955687f)" style="fill: #ff0000; stroke: #ff0000; stroke-width: 0.5; stroke-linejoin: miter"/>
   </g>
   <g id="patch_8">
    <path d="M 441.059492 181.592531 
L 441.105251 183.933318 
L 438.393497 183.798039 
L 423.173292 196.366383 
L 423.164116 196.365925 
L 438.384321 183.797581 
L 435.672567 183.662302 
z
" clip-path="url(#p0be955687f)" style="fill: #ff0000; stroke: #ff0000; stroke-width: 0.5; stroke-linejoin: miter"/>
   </g>
   <g id="patch_9">
    <path d="M 415.829845 171.756002 
L 416.061911 174.096334 
L 413.339744 173.969964 
L 398.907142 186.777137 
L 398.897931 186.776709 
L 413.330532 173.969536 
L 410.608365 173.843166 
z
" clip-path="url(#p0be955687f)" style="fill: #ff0000; stroke: #ff0000; stroke-width: 0.5; stroke-linejoin: miter"/>
   </g>
   <g id="patch_10">
    <path d="M 384.958261 162.039647 
L 385.288065 164.379496 
L 382.560717 164.257814 
L 368.55681 177.187898 
L 368.547581 177.187486 
L 382.551488 164.257402 
L 379.82414 164.13572 
z
" clip-path="url(#p0be955687f)" style="fill: #ff0000; stroke: #ff0000; stroke-width: 0.5; stroke-linejoin: miter"/>
   </g>
   <g id="patch_11">
    <path d="M 349.70179 152.340629 
L 350.117302 154.679915 
L 347.385572 154.562352 
L 333.766463 167.59866 
L 333.75722 167.598263 
L 347.376328 154.561954 
L 344.644598 154.444392 
z
" clip-path="url(#p0be955687f)" style="fill: #ff0000; stroke: #ff0000; stroke-width: 0.5; stroke-linejoin: miter"/>
   </g>
   <g id="patch_12">
    <path d="M 311.884733 142.709929 
L 312.332969 145.048967 
L 309.599606 144.932978 
L 296.129608 158.009427 
L 296.120358 158.009035 
L 309.590356 144.932586 
L 306.856993 144.816598 
z
" clip-path="url(#p0be955687f)" style="fill: #ff0000; stroke: #ff0000; stroke-width: 0.5; stroke-linejoin: miter"/>
   </g>
   <g id="patch_13">
    <path d="M 272.833438 133.123581 
L 273.279393 135.462637 
L 270.546142 135.346539 
L 257.065709 148.420196 
L 257.056461 148.419804 
L 270.536893 135.346146 
L 267.803643 135.230048 
z
" clip-path="url(#p0be955687f)" style="fill: #ff0000; stroke: #ff0000; stroke-width: 0.5; stroke-linejoin: miter"/>
   </g>
   <g id="patch_14">
    <path d="M 233.794383 123.537846 
L 234.237572 125.876923 
L 231.504459 125.760692 
L 218.011387 138.830966 
L 218.002138 138.830573 
L 231.495211 125.760299 
L 228.762097 125.644068 
z
" clip-path="url(#p0be955687f)" style="fill: #ff0000; stroke: #ff0000; stroke-width: 0.5; stroke-linejoin: miter"/>
   </g>
   <g id="patch_15">
    <path d="M 196.363101 113.998821 
L 196.766734 116.338193 
L 194.035603 116.220059 
L 180.362668 129.241738 
L 180.353427 129.241339 
L 194.026361 116.219659 
L 191.295229 116.101525 
z
" clip-path="url(#p0be955687f)" style="fill: #ff0000; stroke: #ff0000; stroke-width: 0.5; stroke-linejoin: miter"/>
   </g>
   <g id="patch_16">
    <path d="M 162.1465 104.541358 
L 162.447625 106.881367 
L 159.721777 106.758308 
L 145.590969 119.652516 
L 145.581745 119.652099 
L 159.712553 106.757891 
L 156.986705 106.634833 
z
" clip-path="url(#p0be955687f)" style="fill: #ff0000; stroke: #ff0000; stroke-width: 0.5; stroke-linejoin: miter"/>
   </g>
   <g id="patch_17">
    <path d="M 132.3302 95.089792 
L 132.526013 97.430261 
L 129.805816 97.302154 
L 115.216926 110.063294 
L 115.207722 110.06286 
L 129.796611 97.30172 
L 127.076415 97.173614 
z
" clip-path="url(#p0be955687f)" style="fill: #ff0000; stroke: #ff0000; stroke-width: 0.5; stroke-linejoin: miter"/>
   </g>
   <g id="patch_18">
    <path d="M 109.053763 85.768591 
L 109.048761 88.109397 
L 106.339967 87.971697 
L 90.911832 100.474079 
L 90.902666 100.473613 
L 106.330801 87.971231 
L 103.622007 87.83353 
z
" clip-path="url(#p0be955687f)" style="fill: #ff0000; stroke: #ff0000; stroke-width: 0.5; stroke-linejoin: miter"/>
   </g>
   <g id="patch_19">
    <path d="M 94.175225 76.579619 
L 93.877892 78.919647 
L 91.187164 78.768056 
L 74.615884 90.884872 
L 74.606779 90.884359 
L 91.178059 78.767543 
L 88.487332 78.615951 
z
" clip-path="url(#p0be955687f)" style="fill: #ff0000; stroke: #ff0000; stroke-width: 0.5; stroke-linejoin: miter"/>
   </g>
   <g id="patch_20">
    <path d="M 90.400389 67.635158 
L 89.642849 69.970909 
L 86.984096 69.797628 
L 68.792974 81.295678 
L 68.783977 81.295091 
L 86.9751 69.797041 
L 84.316348 69.62376 
z
" clip-path="url(#p0be955687f)" style="fill: #ff0000; stroke: #ff0000; stroke-width: 0.5; stroke-linejoin: miter"/>
   </g>
   <g id="patch_21">
    <path d="M 102.241966 59.231614 
L 100.644014 61.549843 
L 98.054893 61.337523 
L 77.41367 71.706513 
L 77.404909 71.705795 
L 98.046132 61.336805 
L 95.457012 61.124486 
z
" clip-path="url(#p0be955687f)" style="fill: #ff0000; stroke: #ff0000; stroke-width: 0.5; stroke-linejoin: miter"/>
   </g>
   <g id="patch_22">
    <path d="M 139.669294 52.346997 
L 136.036116 54.56862 
L 133.678318 54.264943 
L 109.127029 62.117437 
L 109.119051 62.116409 
L 133.670339 54.263916 
L 131.312541 53.960239 
z
" clip-path="url(#p0be955687f)" style="fill: #ff0000; stroke: #ff0000; stroke-width: 0.5; stroke-linejoin: miter"/>
   </g>
   <g id="patch_23">
    <path d="M 48.90125 253.911574 
L 486.32125 253.911574 
L 486.32125 42.748684 
L 48.90125 42.748684 
z
" clip-path="url(#p0be955687f)" style="fill: #0000ff; opacity: 0.2; stroke: #000000; stroke-width: 0.5; stroke-linejoin: miter"/>
   </g>
   <g id="patch_24">
    <path d="M 48.90125 253.911574 
L 486.32125 253.911574 
L 486.32125 282.679266 
L 48.90125 282.679266 
z
" clip-path="url(#p0be955687f)" style="fill: #008000; opacity: 0.2; stroke: #000000; stroke-width: 0.5; stroke-linejoin: miter"/>
   </g>
   <g id="patch_25">
    <path d="M 48.90125 42.748684 
L 486.32125 42.748684 
L 486.32125 13.980992 
L 48.90125 13.980992 
z
" clip-path="url(#p0be955687f)" style="fill: #008000; opacity: 0.2; stroke: #000000; stroke-width: 0.5; stroke-linejoin: miter"/>
   </g>
   <g id="line2d_21">
    <path d="M 122.298344 244.312308 
L 331.117469 242.394462 
L 360.076763 240.476615 
L 379.616795 238.558769 
L 394.124585 236.640923 
L 405.045231 234.723077 
L 414.14708 232.805231 
L 421.659772 230.887385 
L 427.819474 228.969538 
L 432.783967 227.051692 
L 436.817281 225.133846 
L 439.72649 223.216 
L 442.142554 221.298154 
L 443.798288 219.380308 
L 444.803451 217.462462 
L 445.274617 215.544615 
L 445.116004 213.626769 
L 444.416406 211.708923 
L 443.263457 209.791077 
L 441.596679 207.873231 
L 439.494658 205.955385 
L 436.976352 204.037538 
L 434.071747 202.119692 
L 430.782711 200.201846 
L 427.158575 198.284 
L 423.168704 196.366154 
L 418.874099 194.448308 
L 414.305205 192.530462 
L 409.421523 190.612615 
L 404.287203 188.694769 
L 398.902536 186.776923 
L 393.241442 184.859077 
L 387.383884 182.941231 
L 381.311674 181.023385 
L 375.011772 179.105538 
L 368.552196 177.187692 
L 361.904705 175.269846 
L 355.083334 173.352 
L 348.114008 171.434154 
L 340.994967 169.516308 
L 333.761842 167.598462 
L 326.409888 165.680615 
L 318.962044 163.762769 
L 311.437088 161.844923 
L 303.814075 159.927077 
L 296.124983 158.009231 
L 288.38216 156.091385 
L 280.590586 154.173538 
L 272.75317 152.255692 
L 264.90497 150.337846 
L 257.061085 148.42 
L 249.217987 146.502154 
L 241.358325 144.584308 
L 233.544553 142.666462 
L 225.753798 140.748615 
L 218.006762 138.830769 
L 210.320025 136.912923 
L 202.697894 134.995077 
L 195.146497 133.077231 
L 187.688917 131.159385 
L 180.358047 129.241538 
L 173.120604 127.323692 
L 166.01475 125.405846 
L 159.053178 123.488 
L 152.233272 121.570154 
L 145.586357 119.652308 
L 139.12358 117.734462 
L 132.826117 115.816615 
L 126.724081 113.898769 
L 120.836666 111.980923 
L 115.212324 110.063077 
L 109.799707 108.145231 
L 104.648943 106.227385 
L 99.773316 104.309538 
L 95.191876 102.391692 
L 90.907249 100.473846 
L 86.937906 98.556 
L 83.322068 96.638154 
L 80.036839 94.720308 
L 77.119779 92.802462 
L 74.611331 90.884615 
L 72.517585 88.966769 
L 70.855453 87.048923 
L 69.660103 85.131077 
L 68.96085 83.213231 
L 68.788476 81.295385 
L 69.182516 79.377538 
L 70.184158 77.459692 
L 71.841849 75.541846 
L 74.255614 73.624 
L 77.409289 71.706154 
L 81.438257 69.788308 
L 86.346861 67.870462 
L 92.504369 65.952615 
L 99.982007 64.034769 
L 109.12304 62.116923 
L 120.507758 60.199077 
L 135.090304 58.281231 
L 154.535174 56.363385 
L 184.245361 54.445538 
L 311.352994 52.527692 
" clip-path="url(#p0be955687f)" style="fill: none; stroke: #0000ff; stroke-width: 1.5; stroke-linecap: square"/>
   </g>
   <g id="patch_26">
    <path d="M 48.90125 273.08 
L 48.90125 23.76 
" style="fill: none; stroke: #ffffff; stroke-linejoin: miter; stroke-linecap: square"/>
   </g>
   <g id="patch_27">
    <path d="M 486.32125 273.08 
L 486.32125 23.76 
" style="fill: none; stroke: #ffffff; stroke-linejoin: miter; stroke-linecap: square"/>
   </g>
   <g id="patch_28">
    <path d="M 48.90125 273.08 
L 486.32125 273.08 
" style="fill: none; stroke: #ffffff; stroke-linejoin: miter; stroke-linecap: square"/>
   </g>
   <g id="patch_29">
    <path d="M 48.90125 23.76 
L 486.32125 23.76 
" style="fill: none; stroke: #ffffff; stroke-linejoin: miter; stroke-linecap: square"/>
   </g>
   <g id="legend_1">
    <g id="patch_30">
     <path d="M 55.90125 164.598125 
L 157.92625 164.598125 
Q 159.92625 164.598125 159.92625 162.598125 
L 159.92625 134.241875 
Q 159.92625 132.241875 157.92625 132.241875 
L 55.90125 132.241875 
Q 53.90125 132.241875 53.90125 134.241875 
L 53.90125 162.598125 
Q 53.90125 164.598125 55.90125 164.598125 
z
" style="fill: #e5e5e5; opacity: 0.8; stroke: #cccccc; stroke-width: 0.5; stroke-linejoin: miter"/>
    </g>
    <g id="line2d_22">
     <path d="M 57.90125 140.340312 
L 67.90125 140.340312 
L 77.90125 140.340312 
" style="fill: none; stroke: #0000ff; stroke-width: 1.5; stroke-linecap: square"/>
    </g>
    <g id="text_13">
     <!-- Boat path -->
     <g transform="translate(85.90125 143.840312) scale(0.1 -0.1)">
      <defs>
       <path id="DejaVuSans-42" d="M 1259 2228 
L 1259 519 
L 2272 519 
Q 2781 519 3026 730 
Q 3272 941 3272 1375 
Q 3272 1813 3026 2020 
Q 2781 2228 2272 2228 
L 1259 2228 
z
M 1259 4147 
L 1259 2741 
L 2194 2741 
Q 2656 2741 2882 2914 
Q 3109 3088 3109 3444 
Q 3109 3797 2882 3972 
Q 2656 4147 2194 4147 
L 1259 4147 
z
M 628 4666 
L 2241 4666 
Q 2963 4666 3353 4366 
Q 3744 4066 3744 3513 
Q 3744 3084 3544 2831 
Q 3344 2578 2956 2516 
Q 3422 2416 3680 2098 
Q 3938 1781 3938 1306 
Q 3938 681 3513 340 
Q 3088 0 2303 0 
L 628 0 
L 628 4666 
z
" transform="scale(0.015625)"/>
       <path id="DejaVuSans-70" d="M 1159 525 
L 1159 -1331 
L 581 -1331 
L 581 3500 
L 1159 3500 
L 1159 2969 
Q 1341 3281 1617 3432 
Q 1894 3584 2278 3584 
Q 2916 3584 3314 3078 
Q 3713 2572 3713 1747 
Q 3713 922 3314 415 
Q 2916 -91 2278 -91 
Q 1894 -91 1617 61 
Q 1341 213 1159 525 
z
M 3116 1747 
Q 3116 2381 2855 2742 
Q 2594 3103 2138 3103 
Q 1681 3103 1420 2742 
Q 1159 2381 1159 1747 
Q 1159 1113 1420 752 
Q 1681 391 2138 391 
Q 2594 391 2855 752 
Q 3116 1113 3116 1747 
z
" transform="scale(0.015625)"/>
       <path id="DejaVuSans-68" d="M 3513 2113 
L 3513 0 
L 2938 0 
L 2938 2094 
Q 2938 2591 2744 2837 
Q 2550 3084 2163 3084 
Q 1697 3084 1428 2787 
Q 1159 2491 1159 1978 
L 1159 0 
L 581 0 
L 581 4863 
L 1159 4863 
L 1159 2956 
Q 1366 3272 1645 3428 
Q 1925 3584 2291 3584 
Q 2894 3584 3203 3211 
Q 3513 2838 3513 2113 
z
" transform="scale(0.015625)"/>
      </defs>
      <use xlink:href="#DejaVuSans-42"/>
      <use xlink:href="#DejaVuSans-6f" x="68.603516"/>
      <use xlink:href="#DejaVuSans-61" x="129.785156"/>
      <use xlink:href="#DejaVuSans-74" x="191.064453"/>
      <use xlink:href="#DejaVuSans-20" x="230.273438"/>
      <use xlink:href="#DejaVuSans-70" x="262.060547"/>
      <use xlink:href="#DejaVuSans-61" x="325.537109"/>
      <use xlink:href="#DejaVuSans-74" x="386.816406"/>
      <use xlink:href="#DejaVuSans-68" x="426.025391"/>
     </g>
    </g>
    <g id="patch_31">
     <path d="M 77.90125 155.018437 
L 70.02625 157.643437 
L 70.02625 155.018937 
L 57.90125 155.018937 
L 57.90125 155.017937 
L 70.02625 155.017937 
L 70.02625 152.393437 
z
" style="fill: #ff0000; stroke: #ff0000; stroke-width: 0.5; stroke-linejoin: miter"/>
    </g>
    <g id="text_14">
     <!-- Boat direction -->
     <g transform="translate(85.90125 158.518437) scale(0.1 -0.1)">
      <defs>
       <path id="DejaVuSans-64" d="M 2906 2969 
L 2906 4863 
L 3481 4863 
L 3481 0 
L 2906 0 
L 2906 525 
Q 2725 213 2448 61 
Q 2172 -91 1784 -91 
Q 1150 -91 751 415 
Q 353 922 353 1747 
Q 353 2572 751 3078 
Q 1150 3584 1784 3584 
Q 2172 3584 2448 3432 
Q 2725 3281 2906 2969 
z
M 947 1747 
Q 947 1113 1208 752 
Q 1469 391 1925 391 
Q 2381 391 2643 752 
Q 2906 1113 2906 1747 
Q 2906 2381 2643 2742 
Q 2381 3103 1925 3103 
Q 1469 3103 1208 2742 
Q 947 2381 947 1747 
z
" transform="scale(0.015625)"/>
      </defs>
      <use xlink:href="#DejaVuSans-42"/>
      <use xlink:href="#DejaVuSans-6f" x="68.603516"/>
      <use xlink:href="#DejaVuSans-61" x="129.785156"/>
      <use xlink:href="#DejaVuSans-74" x="191.064453"/>
      <use xlink:href="#DejaVuSans-20" x="230.273438"/>
      <use xlink:href="#DejaVuSans-64" x="262.060547"/>
      <use xlink:href="#DejaVuSans-69" x="325.537109"/>
      <use xlink:href="#DejaVuSans-72" x="353.320312"/>
      <use xlink:href="#DejaVuSans-65" x="392.183594"/>
      <use xlink:href="#DejaVuSans-63" x="453.707031"/>
      <use xlink:href="#DejaVuSans-74" x="508.6875"/>
      <use xlink:href="#DejaVuSans-69" x="547.896484"/>
      <use xlink:href="#DejaVuSans-6f" x="575.679688"/>
      <use xlink:href="#DejaVuSans-6e" x="636.861328"/>
     </g>
    </g>
   </g>
  </g>
  <g id="axes_2">
   <g id="patch_32">
    <path d="M 500.62125 273.08 
L 719.33125 273.08 
L 719.33125 23.76 
L 500.62125 23.76 
z
" style="fill: #e5e5e5"/>
   </g>
   <g id="matplotlib.axis_3">
    <g id="xtick_5">
     <g id="line2d_23">
      <path d="M 510.536535 273.08 
L 510.536535 23.76 
" clip-path="url(#p657e86491b)" style="fill: none; stroke: #ffffff; stroke-width: 0.8; stroke-linecap: square"/>
     </g>
     <g id="line2d_24">
      <g>
       <use xlink:href="#m64c117b168" x="510.536535" y="273.08" style="fill: #555555; stroke: #555555; stroke-width: 0.8"/>
      </g>
     </g>
     <g id="text_15">
      <!-- −6 -->
      <g style="fill: #555555" transform="translate(503.165441 287.678437) scale(0.1 -0.1)">
       <defs>
        <path id="DejaVuSans-2212" d="M 678 2272 
L 4684 2272 
L 4684 1741 
L 678 1741 
L 678 2272 
z
" transform="scale(0.015625)"/>
       </defs>
       <use xlink:href="#DejaVuSans-2212"/>
       <use xlink:href="#DejaVuSans-36" x="83.789062"/>
      </g>
     </g>
    </g>
    <g id="xtick_6">
     <g id="line2d_25">
      <path d="M 543.135445 273.08 
L 543.135445 23.76 
" clip-path="url(#p657e86491b)" style="fill: none; stroke: #ffffff; stroke-width: 0.8; stroke-linecap: square"/>
     </g>
     <g id="line2d_26">
      <g>
       <use xlink:href="#m64c117b168" x="543.135445" y="273.08" style="fill: #555555; stroke: #555555; stroke-width: 0.8"/>
      </g>
     </g>
     <g id="text_16">
      <!-- −5 -->
      <g style="fill: #555555" transform="translate(535.764351 287.678437) scale(0.1 -0.1)">
       <defs>
        <path id="DejaVuSans-35" d="M 691 4666 
L 3169 4666 
L 3169 4134 
L 1269 4134 
L 1269 2991 
Q 1406 3038 1543 3061 
Q 1681 3084 1819 3084 
Q 2600 3084 3056 2656 
Q 3513 2228 3513 1497 
Q 3513 744 3044 326 
Q 2575 -91 1722 -91 
Q 1428 -91 1123 -41 
Q 819 9 494 109 
L 494 744 
Q 775 591 1075 516 
Q 1375 441 1709 441 
Q 2250 441 2565 725 
Q 2881 1009 2881 1497 
Q 2881 1984 2565 2268 
Q 2250 2553 1709 2553 
Q 1456 2553 1204 2497 
Q 953 2441 691 2322 
L 691 4666 
z
" transform="scale(0.015625)"/>
       </defs>
       <use xlink:href="#DejaVuSans-2212"/>
       <use xlink:href="#DejaVuSans-35" x="83.789062"/>
      </g>
     </g>
    </g>
    <g id="xtick_7">
     <g id="line2d_27">
      <path d="M 575.734355 273.08 
L 575.734355 23.76 
" clip-path="url(#p657e86491b)" style="fill: none; stroke: #ffffff; stroke-width: 0.8; stroke-linecap: square"/>
     </g>
     <g id="line2d_28">
      <g>
       <use xlink:href="#m64c117b168" x="575.734355" y="273.08" style="fill: #555555; stroke: #555555; stroke-width: 0.8"/>
      </g>
     </g>
     <g id="text_17">
      <!-- −4 -->
      <g style="fill: #555555" transform="translate(568.363261 287.678437) scale(0.1 -0.1)">
       <use xlink:href="#DejaVuSans-2212"/>
       <use xlink:href="#DejaVuSans-34" x="83.789062"/>
      </g>
     </g>
    </g>
    <g id="xtick_8">
     <g id="line2d_29">
      <path d="M 608.333265 273.08 
L 608.333265 23.76 
" clip-path="url(#p657e86491b)" style="fill: none; stroke: #ffffff; stroke-width: 0.8; stroke-linecap: square"/>
     </g>
     <g id="line2d_30">
      <g>
       <use xlink:href="#m64c117b168" x="608.333265" y="273.08" style="fill: #555555; stroke: #555555; stroke-width: 0.8"/>
      </g>
     </g>
     <g id="text_18">
      <!-- −3 -->
      <g style="fill: #555555" transform="translate(600.962171 287.678437) scale(0.1 -0.1)">
       <use xlink:href="#DejaVuSans-2212"/>
       <use xlink:href="#DejaVuSans-33" x="83.789062"/>
      </g>
     </g>
    </g>
    <g id="xtick_9">
     <g id="line2d_31">
      <path d="M 640.932175 273.08 
L 640.932175 23.76 
" clip-path="url(#p657e86491b)" style="fill: none; stroke: #ffffff; stroke-width: 0.8; stroke-linecap: square"/>
     </g>
     <g id="line2d_32">
      <g>
       <use xlink:href="#m64c117b168" x="640.932175" y="273.08" style="fill: #555555; stroke: #555555; stroke-width: 0.8"/>
      </g>
     </g>
     <g id="text_19">
      <!-- −2 -->
      <g style="fill: #555555" transform="translate(633.561081 287.678437) scale(0.1 -0.1)">
       <use xlink:href="#DejaVuSans-2212"/>
       <use xlink:href="#DejaVuSans-32" x="83.789062"/>
      </g>
     </g>
    </g>
    <g id="xtick_10">
     <g id="line2d_33">
      <path d="M 673.531085 273.08 
L 673.531085 23.76 
" clip-path="url(#p657e86491b)" style="fill: none; stroke: #ffffff; stroke-width: 0.8; stroke-linecap: square"/>
     </g>
     <g id="line2d_34">
      <g>
       <use xlink:href="#m64c117b168" x="673.531085" y="273.08" style="fill: #555555; stroke: #555555; stroke-width: 0.8"/>
      </g>
     </g>
     <g id="text_20">
      <!-- −1 -->
      <g style="fill: #555555" transform="translate(666.159991 287.678437) scale(0.1 -0.1)">
       <use xlink:href="#DejaVuSans-2212"/>
       <use xlink:href="#DejaVuSans-31" x="83.789062"/>
      </g>
     </g>
    </g>
    <g id="xtick_11">
     <g id="line2d_35">
      <path d="M 706.129995 273.08 
L 706.129995 23.76 
" clip-path="url(#p657e86491b)" style="fill: none; stroke: #ffffff; stroke-width: 0.8; stroke-linecap: square"/>
     </g>
     <g id="line2d_36">
      <g>
       <use xlink:href="#m64c117b168" x="706.129995" y="273.08" style="fill: #555555; stroke: #555555; stroke-width: 0.8"/>
      </g>
     </g>
     <g id="text_21">
      <!-- 0 -->
      <g style="fill: #555555" transform="translate(702.948745 287.678437) scale(0.1 -0.1)">
       <use xlink:href="#DejaVuSans-30"/>
      </g>
     </g>
    </g>
    <g id="text_22">
     <!-- Speed [km/h] -->
     <g style="fill: #555555" transform="translate(569.434063 302.87625) scale(0.12 -0.12)">
      <defs>
       <path id="DejaVuSans-53" d="M 3425 4513 
L 3425 3897 
Q 3066 4069 2747 4153 
Q 2428 4238 2131 4238 
Q 1616 4238 1336 4038 
Q 1056 3838 1056 3469 
Q 1056 3159 1242 3001 
Q 1428 2844 1947 2747 
L 2328 2669 
Q 3034 2534 3370 2195 
Q 3706 1856 3706 1288 
Q 3706 609 3251 259 
Q 2797 -91 1919 -91 
Q 1588 -91 1214 -16 
Q 841 59 441 206 
L 441 856 
Q 825 641 1194 531 
Q 1563 422 1919 422 
Q 2459 422 2753 634 
Q 3047 847 3047 1241 
Q 3047 1584 2836 1778 
Q 2625 1972 2144 2069 
L 1759 2144 
Q 1053 2284 737 2584 
Q 422 2884 422 3419 
Q 422 4038 858 4394 
Q 1294 4750 2059 4750 
Q 2388 4750 2728 4690 
Q 3069 4631 3425 4513 
z
" transform="scale(0.015625)"/>
       <path id="DejaVuSans-6b" d="M 581 4863 
L 1159 4863 
L 1159 1991 
L 2875 3500 
L 3609 3500 
L 1753 1863 
L 3688 0 
L 2938 0 
L 1159 1709 
L 1159 0 
L 581 0 
L 581 4863 
z
" transform="scale(0.015625)"/>
       <path id="DejaVuSans-2f" d="M 1625 4666 
L 2156 4666 
L 531 -594 
L 0 -594 
L 1625 4666 
z
" transform="scale(0.015625)"/>
      </defs>
      <use xlink:href="#DejaVuSans-53"/>
      <use xlink:href="#DejaVuSans-70" x="63.476562"/>
      <use xlink:href="#DejaVuSans-65" x="126.953125"/>
      <use xlink:href="#DejaVuSans-65" x="188.476562"/>
      <use xlink:href="#DejaVuSans-64" x="250"/>
      <use xlink:href="#DejaVuSans-20" x="313.476562"/>
      <use xlink:href="#DejaVuSans-5b" x="345.263672"/>
      <use xlink:href="#DejaVuSans-6b" x="384.277344"/>
      <use xlink:href="#DejaVuSans-6d" x="442.1875"/>
      <use xlink:href="#DejaVuSans-2f" x="539.599609"/>
      <use xlink:href="#DejaVuSans-68" x="573.291016"/>
      <use xlink:href="#DejaVuSans-5d" x="636.669922"/>
     </g>
    </g>
   </g>
   <g id="matplotlib.axis_4">
    <g id="ytick_7">
     <g id="line2d_37">
      <path d="M 500.62125 244.312308 
L 719.33125 244.312308 
" clip-path="url(#p657e86491b)" style="fill: none; stroke: #ffffff; stroke-width: 0.8; stroke-linecap: square"/>
     </g>
     <g id="line2d_38">
      <g>
       <use xlink:href="#m2082b0591f" x="500.62125" y="244.312308" style="fill: #555555; stroke: #555555; stroke-width: 0.8"/>
      </g>
     </g>
    </g>
    <g id="ytick_8">
     <g id="line2d_39">
      <path d="M 500.62125 205.955385 
L 719.33125 205.955385 
" clip-path="url(#p657e86491b)" style="fill: none; stroke: #ffffff; stroke-width: 0.8; stroke-linecap: square"/>
     </g>
     <g id="line2d_40">
      <g>
       <use xlink:href="#m2082b0591f" x="500.62125" y="205.955385" style="fill: #555555; stroke: #555555; stroke-width: 0.8"/>
      </g>
     </g>
    </g>
    <g id="ytick_9">
     <g id="line2d_41">
      <path d="M 500.62125 167.598462 
L 719.33125 167.598462 
" clip-path="url(#p657e86491b)" style="fill: none; stroke: #ffffff; stroke-width: 0.8; stroke-linecap: square"/>
     </g>
     <g id="line2d_42">
      <g>
       <use xlink:href="#m2082b0591f" x="500.62125" y="167.598462" style="fill: #555555; stroke: #555555; stroke-width: 0.8"/>
      </g>
     </g>
    </g>
    <g id="ytick_10">
     <g id="line2d_43">
      <path d="M 500.62125 129.241538 
L 719.33125 129.241538 
" clip-path="url(#p657e86491b)" style="fill: none; stroke: #ffffff; stroke-width: 0.8; stroke-linecap: square"/>
     </g>
     <g id="line2d_44">
      <g>
       <use xlink:href="#m2082b0591f" x="500.62125" y="129.241538" style="fill: #555555; stroke: #555555; stroke-width: 0.8"/>
      </g>
     </g>
    </g>
    <g id="ytick_11">
     <g id="line2d_45">
      <path d="M 500.62125 90.884615 
L 719.33125 90.884615 
" clip-path="url(#p657e86491b)" style="fill: none; stroke: #ffffff; stroke-width: 0.8; stroke-linecap: square"/>
     </g>
     <g id="line2d_46">
      <g>
       <use xlink:href="#m2082b0591f" x="500.62125" y="90.884615" style="fill: #555555; stroke: #555555; stroke-width: 0.8"/>
      </g>
     </g>
    </g>
    <g id="ytick_12">
     <g id="line2d_47">
      <path d="M 500.62125 52.527692 
L 719.33125 52.527692 
" clip-path="url(#p657e86491b)" style="fill: none; stroke: #ffffff; stroke-width: 0.8; stroke-linecap: square"/>
     </g>
     <g id="line2d_48">
      <g>
       <use xlink:href="#m2082b0591f" x="500.62125" y="52.527692" style="fill: #555555; stroke: #555555; stroke-width: 0.8"/>
      </g>
     </g>
    </g>
   </g>
   <g id="patch_33">
    <path d="M 702.244205 244.312308 
L 705.504096 241.435538 
L 705.504096 244.311349 
L 709.389886 244.311349 
L 709.389886 244.313267 
L 705.504096 244.313267 
L 705.504096 247.189077 
z
" clip-path="url(#p657e86491b)" style="fill: #0000ff; stroke: #0000ff; stroke-width: 0.5; stroke-linejoin: miter"/>
   </g>
   <g id="patch_34">
    <path d="M 665.472635 234.723077 
L 668.732526 231.846308 
L 668.732526 234.722118 
L 709.389886 234.722118 
L 709.389886 234.724036 
L 668.732526 234.724036 
L 668.732526 237.599846 
z
" clip-path="url(#p657e86491b)" style="fill: #0000ff; stroke: #0000ff; stroke-width: 0.5; stroke-linejoin: miter"/>
   </g>
   <g id="patch_35">
    <path d="M 632.612933 225.133846 
L 635.872824 222.257077 
L 635.872824 225.132887 
L 709.389886 225.132887 
L 709.389886 225.134805 
L 635.872824 225.134805 
L 635.872824 228.010615 
z
" clip-path="url(#p657e86491b)" style="fill: #0000ff; stroke: #0000ff; stroke-width: 0.5; stroke-linejoin: miter"/>
   </g>
   <g id="patch_36">
    <path d="M 603.665101 215.544615 
L 606.924992 212.667846 
L 606.924992 215.543656 
L 709.389886 215.543656 
L 709.389886 215.545574 
L 606.924992 215.545574 
L 606.924992 218.421385 
z
" clip-path="url(#p657e86491b)" style="fill: #0000ff; stroke: #0000ff; stroke-width: 0.5; stroke-linejoin: miter"/>
   </g>
   <g id="patch_37">
    <path d="M 578.629138 205.955385 
L 581.889029 203.078615 
L 581.889029 205.954426 
L 709.389886 205.954426 
L 709.389886 205.956344 
L 581.889029 205.956344 
L 581.889029 208.832154 
z
" clip-path="url(#p657e86491b)" style="fill: #0000ff; stroke: #0000ff; stroke-width: 0.5; stroke-linejoin: miter"/>
   </g>
   <g id="patch_38">
    <path d="M 557.505044 196.366154 
L 560.764935 193.489385 
L 560.764935 196.365195 
L 709.389886 196.365195 
L 709.389886 196.367113 
L 560.764935 196.367113 
L 560.764935 199.242923 
z
" clip-path="url(#p657e86491b)" style="fill: #0000ff; stroke: #0000ff; stroke-width: 0.5; stroke-linejoin: miter"/>
   </g>
   <g id="patch_39">
    <path d="M 540.29282 186.776923 
L 543.552711 183.900154 
L 543.552711 186.775964 
L 709.389886 186.775964 
L 709.389886 186.777882 
L 543.552711 186.777882 
L 543.552711 189.653692 
z
" clip-path="url(#p657e86491b)" style="fill: #0000ff; stroke: #0000ff; stroke-width: 0.5; stroke-linejoin: miter"/>
   </g>
   <g id="patch_40">
    <path d="M 526.992464 177.187692 
L 530.252355 174.310923 
L 530.252355 177.186733 
L 709.389886 177.186733 
L 709.389886 177.188651 
L 530.252355 177.188651 
L 530.252355 180.064462 
z
" clip-path="url(#p657e86491b)" style="fill: #0000ff; stroke: #0000ff; stroke-width: 0.5; stroke-linejoin: miter"/>
   </g>
   <g id="patch_41">
    <path d="M 517.603978 167.598462 
L 520.863869 164.721692 
L 520.863869 167.597503 
L 709.389886 167.597503 
L 709.389886 167.59942 
L 520.863869 167.59942 
L 520.863869 170.475231 
z
" clip-path="url(#p657e86491b)" style="fill: #0000ff; stroke: #0000ff; stroke-width: 0.5; stroke-linejoin: miter"/>
   </g>
   <g id="patch_42">
    <path d="M 512.127361 158.009231 
L 515.387252 155.132462 
L 515.387252 158.008272 
L 709.389886 158.008272 
L 709.389886 158.01019 
L 515.387252 158.01019 
L 515.387252 160.886 
z
" clip-path="url(#p657e86491b)" style="fill: #0000ff; stroke: #0000ff; stroke-width: 0.5; stroke-linejoin: miter"/>
   </g>
   <g id="patch_43">
    <path d="M 510.562614 148.42 
L 513.822505 145.543231 
L 513.822505 148.419041 
L 709.389886 148.419041 
L 709.389886 148.420959 
L 513.822505 148.420959 
L 513.822505 151.296769 
z
" clip-path="url(#p657e86491b)" style="fill: #0000ff; stroke: #0000ff; stroke-width: 0.5; stroke-linejoin: miter"/>
   </g>
   <g id="patch_44">
    <path d="M 512.909735 138.830769 
L 516.169626 135.954 
L 516.169626 138.82981 
L 709.389886 138.82981 
L 709.389886 138.831728 
L 516.169626 138.831728 
L 516.169626 141.707538 
z
" clip-path="url(#p657e86491b)" style="fill: #0000ff; stroke: #0000ff; stroke-width: 0.5; stroke-linejoin: miter"/>
   </g>
   <g id="patch_45">
    <path d="M 519.168726 129.241538 
L 522.428617 126.364769 
L 522.428617 129.24058 
L 709.389886 129.24058 
L 709.389886 129.242497 
L 522.428617 129.242497 
L 522.428617 132.118308 
z
" clip-path="url(#p657e86491b)" style="fill: #0000ff; stroke: #0000ff; stroke-width: 0.5; stroke-linejoin: miter"/>
   </g>
   <g id="patch_46">
    <path d="M 529.339586 119.652308 
L 532.599477 116.775538 
L 532.599477 119.651349 
L 709.389886 119.651349 
L 709.389886 119.653267 
L 532.599477 119.653267 
L 532.599477 122.529077 
z
" clip-path="url(#p657e86491b)" style="fill: #0000ff; stroke: #0000ff; stroke-width: 0.5; stroke-linejoin: miter"/>
   </g>
   <g id="patch_47">
    <path d="M 543.422315 110.063077 
L 546.682206 107.186308 
L 546.682206 110.062118 
L 709.389886 110.062118 
L 709.389886 110.064036 
L 546.682206 110.064036 
L 546.682206 112.939846 
z
" clip-path="url(#p657e86491b)" style="fill: #0000ff; stroke: #0000ff; stroke-width: 0.5; stroke-linejoin: miter"/>
   </g>
   <g id="patch_48">
    <path d="M 561.416913 100.473846 
L 564.676804 97.597077 
L 564.676804 100.472887 
L 709.389886 100.472887 
L 709.389886 100.474805 
L 564.676804 100.474805 
L 564.676804 103.350615 
z
" clip-path="url(#p657e86491b)" style="fill: #0000ff; stroke: #0000ff; stroke-width: 0.5; stroke-linejoin: miter"/>
   </g>
   <g id="patch_49">
    <path d="M 583.323381 90.884615 
L 586.583272 88.007846 
L 586.583272 90.883656 
L 709.389886 90.883656 
L 709.389886 90.885574 
L 586.583272 90.885574 
L 586.583272 93.761385 
z
" clip-path="url(#p657e86491b)" style="fill: #0000ff; stroke: #0000ff; stroke-width: 0.5; stroke-linejoin: miter"/>
   </g>
   <g id="patch_50">
    <path d="M 609.141718 81.295385 
L 612.401609 78.418615 
L 612.401609 81.294426 
L 709.389886 81.294426 
L 709.389886 81.296344 
L 612.401609 81.296344 
L 612.401609 84.172154 
z
" clip-path="url(#p657e86491b)" style="fill: #0000ff; stroke: #0000ff; stroke-width: 0.5; stroke-linejoin: miter"/>
   </g>
   <g id="patch_51">
    <path d="M 638.871924 71.706154 
L 642.131815 68.829385 
L 642.131815 71.705195 
L 709.389886 71.705195 
L 709.389886 71.707113 
L 642.131815 71.707113 
L 642.131815 74.582923 
z
" clip-path="url(#p657e86491b)" style="fill: #0000ff; stroke: #0000ff; stroke-width: 0.5; stroke-linejoin: miter"/>
   </g>
   <g id="patch_52">
    <path d="M 672.513999 62.116923 
L 675.77389 59.240154 
L 675.77389 62.115964 
L 709.389886 62.115964 
L 709.389886 62.117882 
L 675.77389 62.117882 
L 675.77389 64.993692 
z
" clip-path="url(#p657e86491b)" style="fill: #0000ff; stroke: #0000ff; stroke-width: 0.5; stroke-linejoin: miter"/>
   </g>
   <g id="patch_53">
    <path d="M 500.62125 253.911574 
L 719.33125 253.911574 
L 719.33125 42.748684 
L 500.62125 42.748684 
z
" clip-path="url(#p657e86491b)" style="fill: #0000ff; opacity: 0.2; stroke: #000000; stroke-width: 0.5; stroke-linejoin: miter"/>
   </g>
   <g id="patch_54">
    <path d="M 500.62125 253.911574 
L 719.33125 253.911574 
L 719.33125 282.679266 
L 500.62125 282.679266 
z
" clip-path="url(#p657e86491b)" style="fill: #008000; opacity: 0.2; stroke: #000000; stroke-width: 0.5; stroke-linejoin: miter"/>
   </g>
   <g id="patch_55">
    <path d="M 500.62125 42.748684 
L 719.33125 42.748684 
L 719.33125 13.980992 
L 500.62125 13.980992 
z
" clip-path="url(#p657e86491b)" style="fill: #008000; opacity: 0.2; stroke: #000000; stroke-width: 0.5; stroke-linejoin: miter"/>
   </g>
   <g id="line2d_49">
    <path d="M 702.244205 244.312308 
L 694.576942 242.394462 
L 687.066153 240.476615 
L 679.711839 238.558769 
L 672.513999 236.640923 
L 665.472635 234.723077 
L 658.587745 232.805231 
L 651.85933 230.887385 
L 645.287389 228.969538 
L 638.871924 227.051692 
L 632.612933 225.133846 
L 626.510417 223.216 
L 620.564376 221.298154 
L 614.77481 219.380308 
L 609.141718 217.462462 
L 603.665101 215.544615 
L 598.344959 213.626769 
L 593.181291 211.708923 
L 588.174099 209.791077 
L 583.323381 207.873231 
L 578.629138 205.955385 
L 574.09137 204.037538 
L 569.710076 202.119692 
L 565.485257 200.201846 
L 561.416913 198.284 
L 557.505044 196.366154 
L 553.74965 194.448308 
L 550.15073 192.530462 
L 546.708285 190.612615 
L 543.422315 188.694769 
L 540.29282 186.776923 
L 537.319799 184.859077 
L 534.503253 182.941231 
L 531.843182 181.023385 
L 529.339586 179.105538 
L 526.992464 177.187692 
L 524.801818 175.269846 
L 522.767646 173.352 
L 520.889948 171.434154 
L 519.168726 169.516308 
L 517.603978 167.598462 
L 516.195705 165.680615 
L 514.943907 163.762769 
L 513.848584 161.844923 
L 512.909735 159.927077 
L 512.127361 158.009231 
L 511.501462 156.091385 
L 511.032038 154.173538 
L 510.719088 152.255692 
L 510.562614 150.337846 
L 510.562614 148.42 
L 510.719088 146.502154 
L 511.032038 144.584308 
L 511.501462 142.666462 
L 512.127361 140.748615 
L 512.909735 138.830769 
L 513.848584 136.912923 
L 514.943907 134.995077 
L 516.195705 133.077231 
L 517.603978 131.159385 
L 519.168726 129.241538 
L 520.889948 127.323692 
L 522.767646 125.405846 
L 524.801818 123.488 
L 526.992464 121.570154 
L 529.339586 119.652308 
L 531.843182 117.734462 
L 534.503253 115.816615 
L 537.319799 113.898769 
L 540.29282 111.980923 
L 543.422315 110.063077 
L 546.708285 108.145231 
L 550.15073 106.227385 
L 553.74965 104.309538 
L 557.505044 102.391692 
L 561.416913 100.473846 
L 565.485257 98.556 
L 569.710076 96.638154 
L 574.09137 94.720308 
L 578.629138 92.802462 
L 583.323381 90.884615 
L 588.174099 88.966769 
L 593.181291 87.048923 
L 598.344959 85.131077 
L 603.665101 83.213231 
L 609.141718 81.295385 
L 614.77481 79.377538 
L 620.564376 77.459692 
L 626.510417 75.541846 
L 632.612933 73.624 
L 638.871924 71.706154 
L 645.287389 69.788308 
L 651.85933 67.870462 
L 658.587745 65.952615 
L 665.472635 64.034769 
L 672.513999 62.116923 
L 679.711839 60.199077 
L 687.066153 58.281231 
L 694.576942 56.363385 
L 702.244205 54.445538 
L 706.129995 52.527692 
" clip-path="url(#p657e86491b)" style="fill: none; stroke: #0000ff; stroke-width: 1.5; stroke-linecap: square"/>
   </g>
   <g id="patch_56">
    <path d="M 500.62125 273.08 
L 500.62125 23.76 
" style="fill: none; stroke: #ffffff; stroke-linejoin: miter; stroke-linecap: square"/>
   </g>
   <g id="patch_57">
    <path d="M 719.33125 273.08 
L 719.33125 23.76 
" style="fill: none; stroke: #ffffff; stroke-linejoin: miter; stroke-linecap: square"/>
   </g>
   <g id="patch_58">
    <path d="M 500.62125 273.08 
L 719.33125 273.08 
" style="fill: none; stroke: #ffffff; stroke-linejoin: miter; stroke-linecap: square"/>
   </g>
   <g id="patch_59">
    <path d="M 500.62125 23.76 
L 719.33125 23.76 
" style="fill: none; stroke: #ffffff; stroke-linejoin: miter; stroke-linecap: square"/>
   </g>
   <g id="legend_2">
    <g id="patch_60">
     <path d="M 617.378125 46.438125 
L 712.33125 46.438125 
Q 714.33125 46.438125 714.33125 44.438125 
L 714.33125 30.76 
Q 714.33125 28.76 712.33125 28.76 
L 617.378125 28.76 
Q 615.378125 28.76 615.378125 30.76 
L 615.378125 44.438125 
Q 615.378125 46.438125 617.378125 46.438125 
z
" style="fill: #e5e5e5; opacity: 0.8; stroke: #cccccc; stroke-width: 0.5; stroke-linejoin: miter"/>
    </g>
    <g id="line2d_50">
     <path d="M 619.378125 36.858437 
L 629.378125 36.858437 
L 639.378125 36.858437 
" style="fill: none; stroke: #0000ff; stroke-width: 1.5; stroke-linecap: square"/>
    </g>
    <g id="text_23">
     <!-- Water speed -->
     <g transform="translate(647.378125 40.358437) scale(0.1 -0.1)">
      <defs>
       <path id="DejaVuSans-57" d="M 213 4666 
L 850 4666 
L 1831 722 
L 2809 4666 
L 3519 4666 
L 4500 722 
L 5478 4666 
L 6119 4666 
L 4947 0 
L 4153 0 
L 3169 4050 
L 2175 0 
L 1381 0 
L 213 4666 
z
" transform="scale(0.015625)"/>
      </defs>
      <use xlink:href="#DejaVuSans-57"/>
      <use xlink:href="#DejaVuSans-61" x="92.501953"/>
      <use xlink:href="#DejaVuSans-74" x="153.78125"/>
      <use xlink:href="#DejaVuSans-65" x="192.990234"/>
      <use xlink:href="#DejaVuSans-72" x="254.513672"/>
      <use xlink:href="#DejaVuSans-20" x="295.626953"/>
      <use xlink:href="#DejaVuSans-73" x="327.414062"/>
      <use xlink:href="#DejaVuSans-70" x="379.513672"/>
      <use xlink:href="#DejaVuSans-65" x="442.990234"/>
      <use xlink:href="#DejaVuSans-65" x="504.513672"/>
      <use xlink:href="#DejaVuSans-64" x="566.037109"/>
     </g>
    </g>
   </g>
  </g>
  <g id="text_24">
   <!-- Time to cross 120s. Boat speed 5.00 km/h. Drift 20.01 m -->
   <g transform="translate(199.833438 16.318125) scale(0.12 -0.12)">
    <defs>
     <path id="DejaVuSans-54" d="M -19 4666 
L 3928 4666 
L 3928 4134 
L 2272 4134 
L 2272 0 
L 1638 0 
L 1638 4134 
L -19 4134 
L -19 4666 
z
" transform="scale(0.015625)"/>
     <path id="DejaVuSans-2e" d="M 684 794 
L 1344 794 
L 1344 0 
L 684 0 
L 684 794 
z
" transform="scale(0.015625)"/>
     <path id="DejaVuSans-66" d="M 2375 4863 
L 2375 4384 
L 1825 4384 
Q 1516 4384 1395 4259 
Q 1275 4134 1275 3809 
L 1275 3500 
L 2222 3500 
L 2222 3053 
L 1275 3053 
L 1275 0 
L 697 0 
L 697 3053 
L 147 3053 
L 147 3500 
L 697 3500 
L 697 3744 
Q 697 4328 969 4595 
Q 1241 4863 1831 4863 
L 2375 4863 
z
" transform="scale(0.015625)"/>
    </defs>
    <use xlink:href="#DejaVuSans-54"/>
    <use xlink:href="#DejaVuSans-69" x="57.958984"/>
    <use xlink:href="#DejaVuSans-6d" x="85.742188"/>
    <use xlink:href="#DejaVuSans-65" x="183.154297"/>
    <use xlink:href="#DejaVuSans-20" x="244.677734"/>
    <use xlink:href="#DejaVuSans-74" x="276.464844"/>
    <use xlink:href="#DejaVuSans-6f" x="315.673828"/>
    <use xlink:href="#DejaVuSans-20" x="376.855469"/>
    <use xlink:href="#DejaVuSans-63" x="408.642578"/>
    <use xlink:href="#DejaVuSans-72" x="463.623047"/>
    <use xlink:href="#DejaVuSans-6f" x="502.486328"/>
    <use xlink:href="#DejaVuSans-73" x="563.667969"/>
    <use xlink:href="#DejaVuSans-73" x="615.767578"/>
    <use xlink:href="#DejaVuSans-20" x="667.867188"/>
    <use xlink:href="#DejaVuSans-31" x="699.654297"/>
    <use xlink:href="#DejaVuSans-32" x="763.277344"/>
    <use xlink:href="#DejaVuSans-30" x="826.900391"/>
    <use xlink:href="#DejaVuSans-73" x="890.523438"/>
    <use xlink:href="#DejaVuSans-2e" x="942.623047"/>
    <use xlink:href="#DejaVuSans-20" x="974.410156"/>
    <use xlink:href="#DejaVuSans-42" x="1006.197266"/>
    <use xlink:href="#DejaVuSans-6f" x="1074.800781"/>
    <use xlink:href="#DejaVuSans-61" x="1135.982422"/>
    <use xlink:href="#DejaVuSans-74" x="1197.261719"/>
    <use xlink:href="#DejaVuSans-20" x="1236.470703"/>
    <use xlink:href="#DejaVuSans-73" x="1268.257812"/>
    <use xlink:href="#DejaVuSans-70" x="1320.357422"/>
    <use xlink:href="#DejaVuSans-65" x="1383.833984"/>
    <use xlink:href="#DejaVuSans-65" x="1445.357422"/>
    <use xlink:href="#DejaVuSans-64" x="1506.880859"/>
    <use xlink:href="#DejaVuSans-20" x="1570.357422"/>
    <use xlink:href="#DejaVuSans-35" x="1602.144531"/>
    <use xlink:href="#DejaVuSans-2e" x="1665.767578"/>
    <use xlink:href="#DejaVuSans-30" x="1697.554688"/>
    <use xlink:href="#DejaVuSans-30" x="1761.177734"/>
    <use xlink:href="#DejaVuSans-20" x="1824.800781"/>
    <use xlink:href="#DejaVuSans-6b" x="1856.587891"/>
    <use xlink:href="#DejaVuSans-6d" x="1914.498047"/>
    <use xlink:href="#DejaVuSans-2f" x="2011.910156"/>
    <use xlink:href="#DejaVuSans-68" x="2045.601562"/>
    <use xlink:href="#DejaVuSans-2e" x="2108.980469"/>
    <use xlink:href="#DejaVuSans-20" x="2140.767578"/>
    <use xlink:href="#DejaVuSans-44" x="2172.554688"/>
    <use xlink:href="#DejaVuSans-72" x="2249.556641"/>
    <use xlink:href="#DejaVuSans-69" x="2290.669922"/>
    <use xlink:href="#DejaVuSans-66" x="2318.453125"/>
    <use xlink:href="#DejaVuSans-74" x="2351.908203"/>
    <use xlink:href="#DejaVuSans-20" x="2391.117188"/>
    <use xlink:href="#DejaVuSans-32" x="2422.904297"/>
    <use xlink:href="#DejaVuSans-30" x="2486.527344"/>
    <use xlink:href="#DejaVuSans-2e" x="2550.150391"/>
    <use xlink:href="#DejaVuSans-30" x="2581.9375"/>
    <use xlink:href="#DejaVuSans-31" x="2645.560547"/>
    <use xlink:href="#DejaVuSans-20" x="2709.183594"/>
    <use xlink:href="#DejaVuSans-6d" x="2740.970703"/>
   </g>
  </g>
 </g>
 <defs>
  <clipPath id="p0be955687f">
   <rect x="48.90125" y="23.76" width="437.42" height="249.32"/>
  </clipPath>
  <clipPath id="p657e86491b">
   <rect x="500.62125" y="23.76" width="218.71" height="249.32"/>
  </clipPath>
 </defs>
</svg>
